<?xml version="1.0" encoding="utf-8"?>
<!-- Generator: Adobe Illustrator 23.1.1, SVG Export Plug-In . SVG Version: 6.00 Build 0)  -->
<svg version="1.2" baseProfile="tiny" id="Calque_1"
	 xmlns="http://www.w3.org/2000/svg" xmlns:xlink="http://www.w3.org/1999/xlink" x="0px" y="0px" width="510px" height="510px"
	 viewBox="65 254 380 2" xml:space="preserve">
<g>
	<g>
		<g>
			<path fill="#FF0000" d="M66.5,251.9c-0.7,0.1-2.3,2-2.3,3.1c0,1.1,1.6,3,2.3,3.1l51.4,3.8l0-13.7L66.5,251.9z"/>
		</g>
		<g>
			<path fill="#FF0000" d="M443.9,251.9c0.7,0.1,2.3,2,2.3,3.1c0,1.1-1.6,3-2.3,3.1l-51.4,3.8l0-13.7L443.9,251.9z"/>
		</g>
		<path d="M248.1,239.2l-130.3,8.9l0,13.7l130.2,8.9c4.7,0.3,9.5,0.3,14.2,0l130.2-8.9l0-13.7l-130.3-8.9
			C257.6,238.9,252.8,238.9,248.1,239.2z"/>
		<circle id="center_1_" fill="#FFFFFF" cx="255" cy="255" r="5"/>
	</g>
</g>
</svg>
