<?xml version="1.0" encoding="utf-8"?>
<!-- Generator: Adobe Illustrator 23.1.1, SVG Export Plug-In . SVG Version: 6.00 Build 0)  -->
<svg version="1.2" baseProfile="tiny" id="Calque_1"
	 xmlns="http://www.w3.org/2000/svg" xmlns:xlink="http://www.w3.org/1999/xlink" x="0px" y="0px" width="510px" height="510px"
	 viewBox="0 0 510 510" xml:space="preserve">
<g>
	<g>
		<path d="M350.6,217.7c0.5-0.3,0.9-0.7,1-1.2c0.2-0.5,0.1-1.1-0.2-1.6l-13.5-23.4c-0.3-0.5-0.7-0.8-1.2-0.9c0,0,0,0,0,0
			c-0.5-0.1-1.1,0-1.6,0.3L161,302l5.7,9.9L350.6,217.7z"/>
		<path fill="#FF0000" d="M94.6,346.7c0.5,0.9,1.7,1.3,2.7,0.8l69.4-35.6L161,302l-65.7,42C94.4,344.5,94.1,345.7,94.6,346.7z"/>
	</g>
	<circle id="center-speed" fill="none" cx="255" cy="255" r="255"/>
	<circle id="_x3C_ellipse_x3E_" fill="#FFFFFF" cx="255" cy="255" r="5"/>
</g>
</svg>
