<?xml version="1.0" encoding="UTF-8"?>
<svg width="633px" height="89px" viewBox="0 0 633 89" version="1.1" xmlns="http://www.w3.org/2000/svg" xmlns:xlink="http://www.w3.org/1999/xlink">
    <!-- Generator: Sketch 54.1 (76490) - https://sketchapp.com -->
    <title>Group</title>
    <desc>Created with Sketch.</desc>
    <g id="Page-1" stroke="none" stroke-width="1" fill="none" fill-rule="evenodd">
        <g id="xebicon19" fill-rule="nonzero">
            <g id="Group">
                <polygon id="Path" fill="#FFFFFF" points="129.7 7.9 95.5 7.9 95.5 37.6 128.8 37.6 128.8 42.5 95.5 42.5 95.5 80.3 129.7 80.3 129.7 85.2 90.2 85.2 90.2 2.8 129.7 2.8"></polygon>
                <path d="M165.3,2.9 C179.5,2.9 188,11 188,24.5 C188,32.4 185.6,36.9 178.4,41.6 C189.9,44.7 195.6,51.7 195.6,62.5 C195.6,76.3 184.8,85.3 169.9,85.3 L147.5,85.3 L147.5,2.9 L165.3,2.9 Z M152.7,40.2 L163.2,40.2 C167.8,40.2 170.7,40 172.4,39.4 C178.2,37.5 182.6,32.1 182.6,24.4 C182.6,13 176.6,7.9 163.3,7.9 L152.8,7.9 L152.8,40.2 L152.7,40.2 Z M152.7,80.4 L166.6,80.4 C174.8,80.4 180.3,80 185.6,74.4 C188.7,71.2 190.1,67.2 190.1,62.5 C190.1,51.9 184.5,45.2 165.6,45.2 L152.7,45.2 L152.7,80.4 L152.7,80.4 Z" id="Shape" fill="#FFFFFF"></path>
                <polygon id="Path" fill="#FFFFFF" points="218.6 2.9 218.6 85.3 213.4 85.3 213.4 2.9"></polygon>
                <path d="M306.8,19.8 C299,11.1 289.7,6.7 278.9,6.7 C259.2,6.7 241.8,24.3 241.8,44.5 C241.8,64.8 259.8,81.7 279,81.7 C289.9,81.7 299.2,77.3 306.8,69.2 L306.8,76.4 C298.1,83.2 288.9,86.6 279.4,86.6 C256.1,86.6 236.4,66.8 236.4,44.3 C236.4,20.9 256.5,1.7 279.1,1.7 C289.2,1.7 298.3,5.3 306.8,12.4 L306.8,19.8 L306.8,19.8 Z" id="Path" fill="#FFFFFF"></path>
                <path d="M361.4,1.7 C384.6,1.7 404.1,21.2 404.1,44.2 C404.1,67.6 384.3,86.6 361.1,86.6 C338.6,86.6 318.7,67.7 318.7,43.5 C318.7,21.2 338.7,1.7 361.4,1.7 Z M361.1,81.7 C381.4,81.7 398.6,64.8 398.6,44.2 C398.6,23.7 381.3,6.7 361.3,6.7 C341.6,6.7 324.1,23.9 324.1,43.6 C324.2,64.7 341.5,81.7 361.1,81.7 Z" id="Shape" fill="#FFFFFF"></path>
                <polygon id="Path" fill="#FFFFFF" points="496.2 2.9 496.2 87.4 427 14.9 427 85.3 421.8 85.3 421.8 2 490.9 74.5 490.9 2.9"></polygon>
                <polygon id="Path" fill="#FE414D" points="534 16.9 522.2 16.9 522.2 2.9 550.1 2.9 550.1 85.3 534 85.3"></polygon>
                <path d="M605.1,55.1 C601.3,56.4 598.1,57.2 595.4,57.2 C581.4,57.2 569.8,45.2 569.8,29.9 C569.8,12.9 582.9,0.8 601.4,0.8 C619.4,0.8 632.3,12.8 632.3,28.9 C632.3,37.2 628.8,46.2 622,55.2 L597,88.6 L585.6,80.1 L605.1,55.1 Z M601.1,44.3 C609.4,44.3 616.2,37.5 616.2,28.9 C616.2,20.3 609.4,13.5 601,13.5 C592.7,13.5 585.8,20.6 585.8,28.7 C585.8,37.6 592.6,44.3 601.1,44.3 Z" id="Shape" fill="#FE414D"></path>
                <polygon id="Path" fill="#FFFFFF" points="76.3 2.9 69.5 2.9 38.3 40 7.1 2.9 0.3 2.9 34.9 44.1 0.3 85.3 7.1 85.3 38.3 48.2 69.5 85.3 76.3 85.3 41.7 44.1"></polygon>
            </g>
        </g>
    </g>
</svg>