<svg xmlns="http://www.w3.org/2000/svg" viewBox="0 0 3280 2048"><defs><style>.cls-1{fill:#81e4c2;}.cls-2{fill:#fe414d;}</style></defs><title>theymadeit-top-v5</title><g id="Calque_2" data-name="Calque 2"><path d="M2933.08,227.31H346.92a89.5,89.5,0,0,0-89.39,89.41V1731.28a89.5,89.5,0,0,0,89.39,89.41H2933.08a89.5,89.5,0,0,0,89.39-89.41V316.72A89.5,89.5,0,0,0,2933.08,227.31Z"/><path d="M.5-.5v2048h3280V-.5ZM3154.71,1735.76c0,49.34-19.29,97.12-54.32,134.51-34.63,37-82.32,61.5-134.28,69l-.1,0H314l-.11,0c-52-7.54-99.65-32.06-134.28-69-35-37.39-54.32-85.17-54.32-134.51V312.24c0-49.34,19.29-97.11,54.32-134.51,34.63-37,82.32-61.5,134.28-69l.11,0H2966l.1,0c52,7.54,99.65,32.06,134.28,69,35,37.4,54.32,85.17,54.32,134.51Z"/><path class="cls-1" d="M2933.08,225.81H346.92A91,91,0,0,0,256,316.72V1731.28a91,91,0,0,0,90.89,90.91H2933.08a91,91,0,0,0,90.89-90.91V316.72A91,91,0,0,0,2933.08,225.81Zm88.33,1505.47a88.45,88.45,0,0,1-88.33,88.36H346.92a88.45,88.45,0,0,1-88.33-88.36V316.72a88.45,88.45,0,0,1,88.33-88.36H2933.08a88.45,88.45,0,0,1,88.33,88.36Z"/><path class="cls-1" d="M3160.85,1864.35V1737.49c0-.58,0-1.15,0-1.73V312.24c0-.58,0-1.15,0-1.73V183.65a6.39,6.39,0,0,0,5.15-6.27,74.92,74.92,0,0,0-74.82-74.84,6.39,6.39,0,0,0-6.27,5.14h-92.42a246.65,246.65,0,0,0-61.27-7.68H348.78a246.65,246.65,0,0,0-61.27,7.68H195.09a6.39,6.39,0,0,0-6.27-5.14A74.92,74.92,0,0,0,114,177.38a6.39,6.39,0,0,0,5.15,6.27V310.51c0,.58,0,1.15,0,1.73V1735.76c0,.58,0,1.15,0,1.73v126.86a6.39,6.39,0,0,0-5.15,6.27,74.92,74.92,0,0,0,74.82,74.84,6.39,6.39,0,0,0,6.27-5.14h92.42a246.65,246.65,0,0,0,61.27,7.68H2931.22a246.65,246.65,0,0,0,61.27-7.68h92.42a6.39,6.39,0,0,0,6.27,5.14,74.92,74.92,0,0,0,74.82-74.84A6.39,6.39,0,0,0,3160.85,1864.35ZM3084.91,110.17a6.39,6.39,0,0,0,6.27,5.15,62.13,62.13,0,0,1,62,62.06,6.4,6.4,0,0,0,5.14,6.27v97.21c-13-80.45-74.94-146.29-156.87-170.69ZM121.64,183.65a6.4,6.4,0,0,0,5.14-6.27,62.13,62.13,0,0,1,62-62.06,6.39,6.39,0,0,0,6.27-5.15h83.42c-81.93,24.4-143.92,90.24-156.87,170.69Zm73.45,1754.18a6.39,6.39,0,0,0-6.27-5.15,62.13,62.13,0,0,1-62-62.06,6.4,6.4,0,0,0-5.14-6.27v-97.21c13,80.45,74.94,146.29,156.87,170.69Zm2736.13,2.5h0Zm34.68-2.5H314.1c-106-15.39-187.31-100.14-187.31-202.07V312.24c0-101.93,81.32-186.68,187.31-202.07H2965.9c106,15.39,187.31,100.14,187.31,202.07V1735.76C3153.21,1837.69,3071.89,1922.44,2965.9,1937.83Zm192.46-73.48a6.4,6.4,0,0,0-5.14,6.27,62.13,62.13,0,0,1-62,62.06,6.39,6.39,0,0,0-6.27,5.15h-83.42c81.93-24.4,143.92-90.24,156.87-170.69Z"/><path class="cls-2" d="M1095,370.36l-9.64,9.55h-70l-9.45-9.55,9.45-9.36h70Zm-35.09,43.51-7.1,7.31L1041,409.12V394.5l9.45-9.5,9.46,9.5Zm0,65.64-9.46,9.44-9.45-9.44V440.08l11.81-11.81,7.1,7.09Z"/><path class="cls-2" d="M1131.87,413.9V361l18.91,19.11v29.11l-11.82,12Zm18.91,26.2v29.3l-18.91,18.92V435.37l7.09-7.1Zm41.64-24.92,9.45,9.46-9.45,9.45h-40.37l-9.45-9.45,9.45-9.46Zm1.09-6V380.09L1212.42,361v52.91l-7.09,7.27Zm18.91,26.18v52.91l-18.91-18.91V440.09l11.82-11.82Z"/><path class="cls-2" d="M1253.69,413.9V364.57l18.91,18.65v25.86l-11.82,12.1Zm18.91,26.21V465.8l-18.91,18.9V435.37l7.09-7.1ZM1334.23,361l-18.91,18.91h-39.09L1257.32,361Zm0,127.27h-76.91l18.91-18.91h39.09Zm-20-73.09,9.46,9.46-9.46,9.45h-40.36l-9.45-9.45,9.45-9.46Z"/><path class="cls-2" d="M1375.5,361l18.91,19.09v29.09l-11.81,12-7.1-7.27Zm58.19,127.27,9.45-9.45-9.45-9.46h-41.64l-9.45,9.46,9.45,9.45Zm-38-73.09-9.46,9.46,9.46,9.45h40.36l9.45-9.45-9.45-9.46ZM1456.05,361l-18.91,19.11v29.11l11.82,12,7.09-7.28Zm0,74.41-7.09-7.09-11.82,11.82v25.64l9.46,9.45,9.45-9.45Z"/><path class="cls-2" d="M1560.05,413.9V364.57L1579,383.22v25.86l-11.82,12.1ZM1579,440.09v25.64l-18.91,18.91V435.36l7.09-7.09Zm-15.34,48.18,18.9-18.91h35.64l9.45,9.46-9.45,9.45Zm64.06-117.91-9.45,9.55h-35.64L1563.68,361h54.55Zm-7.09,44.82,9.46,9.46-9.46,9.45h-40.36l-9.46-9.45,9.46-9.46Zm20-1.27-7.09,7.27-11.82-12V383.55l9.46-9.46,9.45,9.46Zm0,51.82-9.45,9.45-9.46-9.45V440.09l11.82-11.82,7.09,7.09Z"/><path class="cls-2" d="M1681.86,361l18.91,19.09v29.09l-11.82,12-7.09-7.27Zm0,104.73,9.46,9.45,9.45-9.45V440.09L1689,428.27l-7.09,7.09Zm22.55,22.54-9.46-9.45,9.46-9.46H1740l9.46,9.46-9.46,9.45Zm58-74.37-7.09,7.28-11.82-12V380.06L1762.41,361Zm0,51.83-9.46,9.45-9.45-9.45V440.09l11.82-11.82,7.09,7.09Z"/><path class="cls-2" d="M1812.22,409.17V380.06L1831.13,361V413.9l-7.09,7.28Zm18.91,26.2v52.95l-18.91-18.92V440.1L1824,428.27Z"/><path class="cls-2" d="M1880.77,413.9V361l18.91,19.11v29.11l-11.82,12Zm18.91,26.21V465.8l-18.91,18.9V435.37l7.09-7.1Zm61.63,48.16H1884.4l18.91-18.91h39.09Z"/><path class="cls-2" d="M2042.49,370.36l-9.63,9.55h-70l-9.46-9.55,9.46-9.36h70Zm-35.09,43.51-7.09,7.31-11.82-12.06V394.5L1998,385l9.45,9.5Zm0,65.64L1998,489l-9.46-9.44V440.08l11.82-11.81,7.09,7.09Z"/><path class="cls-2" d="M2120.67,409.17V380.06L2139.58,361V413.9l-7.09,7.28Zm18.91,26.2v52.95l-18.91-18.92V440.1l11.82-11.83Z"/><path class="cls-2" d="M2274.12,370.36l-9.63,9.55h-70l-9.46-9.55,9.46-9.36h70ZM2239,413.87l-7.09,7.31-11.82-12.06V394.5l9.46-9.5,9.45,9.5Zm0,65.64-9.45,9.44-9.46-9.44V440.08l11.82-11.81,7.09,7.09Z"/></g></svg>