<svg xmlns="http://www.w3.org/2000/svg" viewBox="0 0 3280 2048"><defs><style>.cls-1{opacity:0.2;}.cls-2{fill:#81e4c2;}</style></defs><title>theymadeit-bottom-v2</title><g id="Calque_2" data-name="Calque 2"><rect x="0.5" y="-0.5" width="3280" height="2048"/><g class="cls-1"><path class="cls-2" d="M3014,277.31l123.41-51.12a209.08,209.08,0,0,0-45.08-60.39l-91.64,91.64A89.21,89.21,0,0,1,3014,277.31Z"/><path class="cls-2" d="M2939.06,227.28a88.88,88.88,0,0,1,23.46,4.65l47.68-115.12A241.69,241.69,0,0,0,2939.06,104Z"/><path class="cls-2" d="M2972.87,236.21a89.55,89.55,0,0,1,19.87,13.31l91.17-91.17a228.78,228.78,0,0,0-63.19-37.65Z"/><path class="cls-2" d="M3018.25,287.66a89,89,0,0,1,4.65,23.46h134.57a193.78,193.78,0,0,0-15.42-74.73Z"/><rect class="cls-2" x="3023.06" y="322.42" width="134.38" height="50.42"/><rect class="cls-2" x="3023.06" y="446.04" width="134.38" height="50.42"/><rect class="cls-2" x="3023.06" y="507.04" width="134.38" height="50.42"/><rect class="cls-2" x="3023.06" y="568.04" width="134.38" height="50.42"/><rect class="cls-2" x="3023.03" y="384.42" width="134.37" height="50.42"/><rect class="cls-2" x="3023.06" y="629.79" width="134.38" height="50.42"/><rect class="cls-2" x="3023.06" y="753.04" width="134.38" height="50.42"/><rect class="cls-2" x="3023.06" y="691.42" width="134.38" height="50.42"/><rect class="cls-2" x="3023.06" y="815.04" width="134.38" height="50.42"/><rect class="cls-2" x="3023.06" y="876.04" width="134.38" height="50.42"/><rect class="cls-2" x="3023.06" y="937.04" width="134.38" height="50.42"/><rect class="cls-2" x="3023.06" y="998.79" width="134.38" height="50.42"/><rect class="cls-2" x="3023.06" y="1122.04" width="134.38" height="50.42"/><rect class="cls-2" x="3023.06" y="1060.42" width="134.38" height="50.42"/><rect class="cls-2" x="3023.06" y="1184.04" width="134.38" height="50.42"/><rect class="cls-2" x="3023.06" y="1245.04" width="134.38" height="50.42"/><rect class="cls-2" x="3023.06" y="1306.04" width="134.38" height="50.42"/><rect class="cls-2" x="3023.06" y="1367.79" width="134.38" height="50.42"/><rect class="cls-2" x="3023.06" y="1491.04" width="134.38" height="50.42"/><rect class="cls-2" x="3023.06" y="1429.42" width="134.38" height="50.42"/><rect class="cls-2" x="3023.06" y="1553.04" width="134.38" height="50.42"/><rect class="cls-2" x="3023.06" y="1614.04" width="134.38" height="50.42"/><rect class="cls-2" x="3023.06" y="1675.04" width="134.38" height="50.42"/><rect class="cls-2" x="660.19" y="103.84" width="50.42" height="123.25"/><rect class="cls-2" x="783.81" y="103.8" width="50.42" height="123.26"/><rect class="cls-2" x="844.81" y="103.8" width="50.42" height="123.26"/><rect class="cls-2" x="905.81" y="103.8" width="50.42" height="123.26"/><rect class="cls-2" x="722.19" y="103.84" width="50.42" height="123.25"/><rect class="cls-2" x="967.56" y="103.84" width="50.42" height="123.25"/><rect class="cls-2" x="1029.19" y="103.84" width="50.42" height="123.25"/><rect class="cls-2" x="1152.81" y="103.8" width="50.42" height="123.26"/><rect class="cls-2" x="1213.81" y="103.8" width="50.42" height="123.26"/><rect class="cls-2" x="1274.81" y="103.8" width="50.42" height="123.26"/><rect class="cls-2" x="1091.19" y="103.84" width="50.42" height="123.25"/><rect class="cls-2" x="1336.56" y="103.84" width="50.42" height="123.25"/><rect class="cls-2" x="1398.19" y="103.84" width="50.42" height="123.25"/><rect class="cls-2" x="1521.81" y="103.8" width="50.42" height="123.26"/><rect class="cls-2" x="1582.81" y="103.8" width="50.42" height="123.26"/><rect class="cls-2" x="1643.81" y="103.8" width="50.42" height="123.26"/><rect class="cls-2" x="1460.19" y="103.84" width="50.42" height="123.25"/><rect class="cls-2" x="1705.56" y="103.84" width="50.42" height="123.25"/><rect class="cls-2" x="1767.19" y="103.84" width="50.42" height="123.25"/><rect class="cls-2" x="1890.81" y="103.8" width="50.42" height="123.26"/><rect class="cls-2" x="1951.81" y="103.8" width="50.42" height="123.26"/><rect class="cls-2" x="2012.81" y="103.8" width="50.42" height="123.26"/><rect class="cls-2" x="1829.19" y="103.84" width="50.42" height="123.25"/><rect class="cls-2" x="2074.56" y="103.84" width="50.42" height="123.25"/><rect class="cls-2" x="2136.19" y="103.84" width="50.42" height="123.25"/><rect class="cls-2" x="2259.81" y="103.8" width="50.42" height="123.26"/><rect class="cls-2" x="2320.81" y="103.8" width="50.42" height="123.26"/><rect class="cls-2" x="2381.81" y="103.8" width="50.42" height="123.26"/><rect class="cls-2" x="2198.19" y="103.84" width="50.42" height="123.25"/><rect class="cls-2" x="2877.44" y="103.84" width="50.42" height="123.25"/><rect class="cls-2" x="2444.72" y="103.84" width="50.42" height="123.25"/><rect class="cls-2" x="2629.62" y="103.84" width="50.42" height="123.25"/><path class="cls-2" d="M3014,1770.69l123.41,51.12a209.08,209.08,0,0,1-45.08,60.39l-91.64-91.64A89.21,89.21,0,0,0,3014,1770.69Z"/><path class="cls-2" d="M2939.06,1820.72a88.88,88.88,0,0,0,23.46-4.65l47.68,115.12a241.69,241.69,0,0,1-71.14,12.85Z"/><path class="cls-2" d="M2972.87,1811.79a89.55,89.55,0,0,0,19.87-13.31l91.17,91.17a228.78,228.78,0,0,1-63.19,37.65Z"/><path class="cls-2" d="M3018.25,1760.34a89,89,0,0,0,4.65-23.46h134.57a193.78,193.78,0,0,1-15.42,74.73Z"/><rect class="cls-2" x="660.19" y="1820.91" width="50.42" height="123.25"/><rect class="cls-2" x="783.81" y="1820.94" width="50.42" height="123.26"/><rect class="cls-2" x="844.81" y="1820.94" width="50.42" height="123.26"/><rect class="cls-2" x="905.81" y="1820.94" width="50.42" height="123.26"/><rect class="cls-2" x="722.19" y="1820.91" width="50.42" height="123.25"/><rect class="cls-2" x="967.56" y="1820.91" width="50.42" height="123.25"/><rect class="cls-2" x="1029.19" y="1820.91" width="50.42" height="123.25"/><rect class="cls-2" x="1152.81" y="1820.94" width="50.42" height="123.26"/><rect class="cls-2" x="1213.81" y="1820.94" width="50.42" height="123.26"/><rect class="cls-2" x="1274.81" y="1820.94" width="50.42" height="123.26"/><rect class="cls-2" x="1091.19" y="1820.91" width="50.42" height="123.25"/><rect class="cls-2" x="413.19" y="103.8" width="50.42" height="123.26"/><rect class="cls-2" x="474.94" y="103.84" width="50.42" height="123.25"/><rect class="cls-2" x="536.56" y="103.84" width="50.42" height="123.25"/><rect class="cls-2" x="598.56" y="103.84" width="50.42" height="123.25"/><rect class="cls-2" x="413.19" y="1820.94" width="50.42" height="123.26"/><rect class="cls-2" x="474.94" y="1820.91" width="50.42" height="123.25"/><rect class="cls-2" x="536.56" y="1820.91" width="50.42" height="123.25"/><rect class="cls-2" x="598.56" y="1820.91" width="50.42" height="123.25"/><rect class="cls-2" x="1336.56" y="1820.91" width="50.42" height="123.25"/><rect class="cls-2" x="1398.19" y="1820.91" width="50.42" height="123.25"/><rect class="cls-2" x="1521.81" y="1820.94" width="50.42" height="123.26"/><rect class="cls-2" x="1582.81" y="1820.94" width="50.42" height="123.26"/><rect class="cls-2" x="1643.81" y="1820.94" width="50.42" height="123.26"/><rect class="cls-2" x="1460.19" y="1820.91" width="50.42" height="123.25"/><rect class="cls-2" x="1705.56" y="1820.91" width="50.42" height="123.25"/><rect class="cls-2" x="1767.19" y="1820.91" width="50.42" height="123.25"/><rect class="cls-2" x="1890.81" y="1820.94" width="50.42" height="123.26"/><rect class="cls-2" x="1951.81" y="1820.94" width="50.42" height="123.26"/><rect class="cls-2" x="2012.81" y="1820.94" width="50.42" height="123.26"/><rect class="cls-2" x="1829.19" y="1820.91" width="50.42" height="123.25"/><rect class="cls-2" x="2074.56" y="1820.91" width="50.42" height="123.25"/><rect class="cls-2" x="2136.19" y="1820.91" width="50.42" height="123.25"/><rect class="cls-2" x="2259.81" y="1820.94" width="50.42" height="123.26"/><rect class="cls-2" x="2320.81" y="1820.94" width="50.42" height="123.26"/><rect class="cls-2" x="2381.81" y="1820.94" width="50.42" height="123.26"/><rect class="cls-2" x="2198.19" y="1820.91" width="50.42" height="123.25"/><rect class="cls-2" x="2877.44" y="1820.91" width="50.42" height="123.25"/><rect class="cls-2" x="2444.72" y="1820.91" width="50.42" height="123.25"/><rect class="cls-2" x="2505.72" y="103.8" width="50.42" height="123.26"/><rect class="cls-2" x="2566.72" y="103.8" width="50.42" height="123.26"/><rect class="cls-2" x="2505.72" y="1820.94" width="50.42" height="123.26"/><rect class="cls-2" x="2566.72" y="1820.94" width="50.42" height="123.26"/><rect class="cls-2" x="2629.62" y="1820.91" width="50.42" height="123.25"/><rect class="cls-2" x="2753.53" y="103.84" width="50.42" height="123.25"/><rect class="cls-2" x="2690.62" y="103.8" width="50.42" height="123.26"/><rect class="cls-2" x="2690.62" y="1820.94" width="50.42" height="123.26"/><rect class="cls-2" x="2753.53" y="1820.91" width="50.42" height="123.25"/><rect class="cls-2" x="2814.53" y="103.8" width="50.42" height="123.26"/><rect class="cls-2" x="2814.53" y="1820.94" width="50.42" height="123.26"/><rect class="cls-2" x="352.19" y="103.84" width="50.42" height="123.25"/><rect class="cls-2" x="122.56" y="322.42" width="134.38" height="50.42"/><rect class="cls-2" x="122.56" y="446.04" width="134.38" height="50.42"/><rect class="cls-2" x="122.56" y="507.04" width="134.38" height="50.42"/><rect class="cls-2" x="122.56" y="568.04" width="134.38" height="50.42"/><rect class="cls-2" x="122.53" y="384.42" width="134.37" height="50.42"/><rect class="cls-2" x="122.56" y="629.79" width="134.38" height="50.42"/><rect class="cls-2" x="122.56" y="753.04" width="134.38" height="50.42"/><rect class="cls-2" x="122.56" y="691.42" width="134.38" height="50.42"/><rect class="cls-2" x="122.56" y="815.04" width="134.38" height="50.42"/><rect class="cls-2" x="122.56" y="876.04" width="134.38" height="50.42"/><rect class="cls-2" x="122.56" y="937.04" width="134.38" height="50.42"/><rect class="cls-2" x="122.56" y="998.79" width="134.38" height="50.42"/><rect class="cls-2" x="122.56" y="1122.04" width="134.38" height="50.42"/><rect class="cls-2" x="122.56" y="1060.42" width="134.38" height="50.42"/><rect class="cls-2" x="122.56" y="1184.04" width="134.38" height="50.42"/><rect class="cls-2" x="122.56" y="1245.04" width="134.38" height="50.42"/><rect class="cls-2" x="122.56" y="1306.04" width="134.38" height="50.42"/><rect class="cls-2" x="122.56" y="1367.79" width="134.38" height="50.42"/><rect class="cls-2" x="122.56" y="1491.04" width="134.38" height="50.42"/><rect class="cls-2" x="122.56" y="1429.42" width="134.38" height="50.42"/><rect class="cls-2" x="122.56" y="1553.04" width="134.38" height="50.42"/><rect class="cls-2" x="122.56" y="1614.04" width="134.38" height="50.42"/><rect class="cls-2" x="122.56" y="1675.04" width="134.38" height="50.42"/><path class="cls-2" d="M266.07,277.29,142.66,226.16a209.26,209.26,0,0,1,45.08-60.39l91.64,91.65A89.9,89.9,0,0,0,266.07,277.29Z"/><path class="cls-2" d="M341,227.25a89.7,89.7,0,0,0-23.45,4.65L269.84,116.77A241.75,241.75,0,0,1,341,103.92Z"/><path class="cls-2" d="M307.17,236.18a89.9,89.9,0,0,0-19.87,13.31l-91.17-91.18a228.92,228.92,0,0,1,63.19-37.65Z"/><path class="cls-2" d="M261.79,287.64a89.36,89.36,0,0,0-4.65,23.46H122.58A193.83,193.83,0,0,1,138,236.36Z"/><rect class="cls-2" x="352.19" y="1820.91" width="50.42" height="123.25"/><path class="cls-2" d="M266.07,1770.71l-123.41,51.13a209.26,209.26,0,0,0,45.08,60.39l91.64-91.65A89.9,89.9,0,0,1,266.07,1770.71Z"/><path class="cls-2" d="M341,1820.75a89.7,89.7,0,0,1-23.45-4.65l-47.69,115.13A241.75,241.75,0,0,0,341,1944.08Z"/><path class="cls-2" d="M307.17,1811.82a89.9,89.9,0,0,1-19.87-13.31l-91.17,91.18a228.92,228.92,0,0,0,63.19,37.65Z"/><path class="cls-2" d="M261.79,1760.36a89.36,89.36,0,0,1-4.65-23.46H122.58A193.83,193.83,0,0,0,138,1811.64Z"/></g></g></svg>