<?xml version="1.0" encoding="UTF-8"?>
<svg width="3281px" height="2049px" viewBox="0 0 3281 2049" version="1.1" xmlns="http://www.w3.org/2000/svg" xmlns:xlink="http://www.w3.org/1999/xlink">
    <!-- Generator: Sketch 54.1 (76490) - https://sketchapp.com -->
    <title>theymadeit-top-v2 (1)</title>
    <desc>Created with Sketch.</desc>
    <g id="Page-1" stroke="none" stroke-width="1" fill="none" fill-rule="evenodd">
        <g id="theymadeit-top-v2-(1)" fill-rule="nonzero">
            <path d="M0,1 L0,2049 L3280,2049 L3280,1 L0,1 Z M3136.88,227.69 L3013.47,278.81 C3009.94528,271.619288 3005.46839,264.935912 3000.16,258.94 L3091.8,167.3 C3110.36038,184.533404 3125.63511,204.995721 3136.88,227.69 L3136.88,227.69 Z M3083.41,159.85 L2992.24,251 C2986.24157,245.694871 2979.55865,241.218291 2972.37,237.69 L3020.22,122.18 C3043.1775,131.245725 3064.51665,143.966819 3083.41,159.85 L3083.41,159.85 Z M2938.56,105.46 C2962.78345,106.152641 2986.76498,110.484419 3009.7,118.31 L2962,233.43 C2954.42483,230.831565 2946.53359,229.267446 2938.54,228.78 L2938.56,105.46 Z M258.82,122.16 L306.67,237.68 C299.482881,241.215039 292.800403,245.694687 286.8,251 L195.63,159.82 C214.52548,143.942369 235.864254,131.224879 258.82,122.16 Z M187.24,167.27 L278.88,258.92 C273.574871,264.91843 269.098291,271.601348 265.57,278.79 L142.16,227.66 C153.408303,204.967818 168.682605,184.506082 187.24,167.27 L187.24,167.27 Z M137.5,237.86 L261.29,289.14 C258.695798,296.716314 257.131794,304.606968 256.64,312.6 L122.08,312.6 C122.211564,286.910476 127.45333,261.503886 137.5,237.86 L137.5,237.86 Z M122.06,323.92 L256.44,323.92 L256.44,374.34 L122.06,374.34 L122.06,323.92 Z M122.06,1604.92 L122.06,1554.5 L256.44,1554.5 L256.44,1605 L122.06,1604.92 Z M256.44,1615.5 L256.44,1666 L122.06,1666 L122.06,1615.58 L256.44,1615.5 Z M122.06,1543 L122.06,1492.58 L256.44,1492.58 L256.44,1543 L122.06,1543 Z M122.06,1481.38 L122.06,1430.96 L256.44,1430.96 L256.44,1481.38 L122.06,1481.38 Z M122.06,1419.75 L122.06,1369.33 L256.44,1369.33 L256.44,1419.75 L122.06,1419.75 Z M122.06,1358 L122.06,1307.58 L256.44,1307.58 L256.44,1358 L122.06,1358 Z M122.06,1297 L122.06,1246.58 L256.44,1246.58 L256.44,1297 L122.06,1297 Z M122.06,1236 L122.06,1185.58 L256.44,1185.58 L256.44,1236 L122.06,1236 Z M122.06,1174 L122.06,1123.58 L256.44,1123.58 L256.44,1174 L122.06,1174 Z M122.06,1112.38 L122.06,1061.96 L256.44,1061.96 L256.44,1112.38 L122.06,1112.38 Z M122.06,1050.75 L122.06,1000.29 L256.44,1000.29 L256.44,1050.71 L122.06,1050.75 Z M122.06,989 L122.06,938.54 L256.44,938.54 L256.44,989 L122.06,989 Z M122.06,928 L122.06,877.54 L256.44,877.54 L256.44,928 L122.06,928 Z M122.06,867 L122.06,816.54 L256.44,816.54 L256.44,867 L122.06,867 Z M122.06,805 L122.06,754.54 L256.44,754.54 L256.44,805 L122.06,805 Z M122.06,743.38 L122.06,692.92 L256.44,692.92 L256.44,743.34 L122.06,743.38 Z M122.06,681.75 L122.06,631.29 L256.44,631.29 L256.44,681.71 L122.06,681.75 Z M122.06,620 L122.06,569.54 L256.44,569.54 L256.44,620 L122.06,620 Z M122.06,559 L122.06,508.54 L256.44,508.54 L256.44,559 L122.06,559 Z M122.06,498 L122.06,447.54 L256.44,447.54 L256.44,498 L122.06,498 Z M122.06,386 L256.4,386 L256.4,436.42 L122,436.42 L122.06,386 Z M122.06,1676.62 L256.44,1676.62 L256.44,1727 L122.06,1727 L122.06,1676.62 Z M122.06,1738.48 L256.64,1738.48 C257.131794,1746.47303 258.695798,1754.36369 261.29,1761.94 L137.5,1813.14 C127.45333,1789.49611 122.211564,1764.08952 122.08,1738.4 L122.06,1738.48 Z M142.14,1823.42 L265.55,1772.29 C269.078291,1779.47865 273.554871,1786.16157 278.86,1792.16 L187.22,1883.81 C168.661974,1866.54841 153.394101,1846.0591 142.16,1823.34 L142.14,1823.42 Z M195.61,1891.27 L286.8,1800 C292.801002,1805.3018 299.483452,1809.77806 306.67,1813.31 L258.82,1928.83 C235.865579,1919.77124 214.526883,1907.06055 195.63,1891.19 L195.61,1891.27 Z M340.46,1945.66 C316.236649,1944.96645 292.255253,1940.6347 269.32,1932.81 L317,1817.6 C324.574177,1820.18936 332.460871,1821.75325 340.45,1822.25 L340.46,1945.66 Z M340.46,228.83 C332.471154,229.300011 324.58113,230.836985 317,233.4 L269.34,118.27 C292.275253,110.445302 316.256649,106.113549 340.48,105.42 L340.46,228.83 Z M402.09,1945.74 L351.69,1945.74 L351.69,1822.41 L402.11,1822.41 L402.09,1945.74 Z M402.09,228.67 L351.69,228.67 L351.69,105.34 L402.11,105.34 L402.09,228.67 Z M463.09,1945.78 L412.69,1945.78 L412.69,1822.44 L463.11,1822.44 L463.09,1945.78 Z M463.09,228.64 L412.69,228.64 L412.69,105.3 L463.11,105.3 L463.09,228.64 Z M524.84,1945.74 L474.44,1945.74 L474.44,1822.41 L524.86,1822.41 L524.84,1945.74 Z M524.84,228.67 L474.44,228.67 L474.44,105.34 L524.86,105.34 L524.84,228.67 Z M586.46,1945.74 L536.06,1945.74 L536.06,1822.41 L586.48,1822.41 L586.46,1945.74 Z M586.46,228.67 L536.06,228.67 L536.06,105.34 L586.48,105.34 L586.46,228.67 Z M648.46,1945.74 L598.06,1945.74 L598.06,1822.41 L648.48,1822.41 L648.46,1945.74 Z M648.46,228.67 L598.06,228.67 L598.06,105.34 L648.48,105.34 L648.46,228.67 Z M710.09,1945.74 L659.69,1945.74 L659.69,1822.41 L710.11,1822.41 L710.09,1945.74 Z M710.09,228.67 L659.69,228.67 L659.69,105.34 L710.11,105.34 L710.09,228.67 Z M772.09,1945.74 L721.69,1945.74 L721.69,1822.41 L772.11,1822.41 L772.09,1945.74 Z M772.09,228.67 L721.69,228.67 L721.69,105.34 L772.11,105.34 L772.09,228.67 Z M833.73,1945.7 L783.31,1945.7 L783.31,1822.44 L833.73,1822.44 L833.73,1945.7 Z M833.73,228.56 L783.31,228.56 L783.31,105.3 L833.73,105.3 L833.73,228.56 Z M894.73,1945.7 L844.31,1945.7 L844.31,1822.44 L894.73,1822.44 L894.73,1945.7 Z M894.73,228.56 L844.31,228.56 L844.31,105.3 L894.73,105.3 L894.73,228.56 Z M955.73,1945.7 L905.31,1945.7 L905.31,1822.44 L955.73,1822.44 L955.73,1945.7 Z M955.73,228.56 L905.31,228.56 L905.31,105.3 L955.73,105.3 L955.73,228.56 Z M1017.48,1945.66 L967.06,1945.66 L967.06,1822.41 L1017.48,1822.41 L1017.48,1945.66 Z M1017.48,228.59 L967.06,228.59 L967.06,105.34 L1017.48,105.34 L1017.48,228.59 Z M1079.11,1945.66 L1028.69,1945.66 L1028.69,1822.41 L1079.11,1822.41 L1079.11,1945.66 Z M1079.11,228.59 L1028.69,228.59 L1028.69,105.34 L1079.11,105.34 L1079.11,228.59 Z M1141.11,1945.66 L1090.69,1945.66 L1090.69,1822.41 L1141.11,1822.41 L1141.11,1945.66 Z M1141.11,228.59 L1090.69,228.59 L1090.69,105.34 L1141.11,105.34 L1141.11,228.59 Z M1202.73,1945.7 L1152.31,1945.7 L1152.31,1822.44 L1202.73,1822.44 L1202.73,1945.7 Z M1202.73,228.56 L1152.31,228.56 L1152.31,105.3 L1202.73,105.3 L1202.73,228.56 Z M1263.73,1945.7 L1213.31,1945.7 L1213.31,1822.44 L1263.73,1822.44 L1263.73,1945.7 Z M1263.73,228.56 L1213.31,228.56 L1213.31,105.3 L1263.73,105.3 L1263.73,228.56 Z M1324.73,1945.7 L1274.31,1945.7 L1274.31,1822.44 L1324.73,1822.44 L1324.73,1945.7 Z M1324.73,228.56 L1274.31,228.56 L1274.31,105.3 L1324.73,105.3 L1324.73,228.56 Z M1386.48,1945.66 L1336.06,1945.66 L1336.06,1822.41 L1386.48,1822.41 L1386.48,1945.66 Z M1386.48,228.59 L1336.06,228.59 L1336.06,105.34 L1386.48,105.34 L1386.48,228.59 Z M1448.11,1945.66 L1397.69,1945.66 L1397.69,1822.41 L1448.11,1822.41 L1448.11,1945.66 Z M1448.11,228.59 L1397.69,228.59 L1397.69,105.34 L1448.11,105.34 L1448.11,228.59 Z M1510.11,1945.66 L1459.69,1945.66 L1459.69,1822.41 L1510.11,1822.41 L1510.11,1945.66 Z M1510.11,228.59 L1459.69,228.59 L1459.69,105.34 L1510.11,105.34 L1510.11,228.59 Z M1571.73,1945.7 L1521.31,1945.7 L1521.31,1822.44 L1571.73,1822.44 L1571.73,1945.7 Z M1571.73,228.56 L1521.31,228.56 L1521.31,105.3 L1571.73,105.3 L1571.73,228.56 Z M1632.73,1945.7 L1582.31,1945.7 L1582.31,1822.44 L1632.73,1822.44 L1632.73,1945.7 Z M1632.73,228.56 L1582.31,228.56 L1582.31,105.3 L1632.73,105.3 L1632.73,228.56 Z M1693.73,1945.7 L1643.31,1945.7 L1643.31,1822.44 L1693.73,1822.44 L1693.73,1945.7 Z M1693.73,228.56 L1643.31,228.56 L1643.31,105.3 L1693.73,105.3 L1693.73,228.56 Z M1755.48,1945.66 L1705.06,1945.66 L1705.06,1822.41 L1755.48,1822.41 L1755.48,1945.66 Z M1755.48,228.59 L1705.06,228.59 L1705.06,105.34 L1755.48,105.34 L1755.48,228.59 Z M1817.11,1945.66 L1766.69,1945.66 L1766.69,1822.41 L1817.11,1822.41 L1817.11,1945.66 Z M1817.11,228.59 L1766.69,228.59 L1766.69,105.34 L1817.11,105.34 L1817.11,228.59 Z M1879.11,1945.66 L1828.69,1945.66 L1828.69,1822.41 L1879.11,1822.41 L1879.11,1945.66 Z M1879.11,228.59 L1828.69,228.59 L1828.69,105.34 L1879.11,105.34 L1879.11,228.59 Z M1940.73,1945.7 L1890.31,1945.7 L1890.31,1822.44 L1940.73,1822.44 L1940.73,1945.7 Z M1940.73,228.56 L1890.31,228.56 L1890.31,105.3 L1940.73,105.3 L1940.73,228.56 Z M2001.73,1945.7 L1951.31,1945.7 L1951.31,1822.44 L2001.73,1822.44 L2001.73,1945.7 Z M2001.73,228.56 L1951.31,228.56 L1951.31,105.3 L2001.73,105.3 L2001.73,228.56 Z M2062.73,1945.7 L2012.31,1945.7 L2012.31,1822.44 L2062.73,1822.44 L2062.73,1945.7 Z M2062.73,228.56 L2012.31,228.56 L2012.31,105.3 L2062.73,105.3 L2062.73,228.56 Z M2124.48,1945.66 L2074.06,1945.66 L2074.06,1822.41 L2124.48,1822.41 L2124.48,1945.66 Z M2124.48,228.59 L2074.06,228.59 L2074.06,105.34 L2124.48,105.34 L2124.48,228.59 Z M2186.11,1945.66 L2135.69,1945.66 L2135.69,1822.41 L2186.11,1822.41 L2186.11,1945.66 Z M2186.11,228.59 L2135.69,228.59 L2135.69,105.34 L2186.11,105.34 L2186.11,228.59 Z M2248.11,1945.66 L2197.69,1945.66 L2197.69,1822.41 L2248.11,1822.41 L2248.11,1945.66 Z M2248.11,228.59 L2197.69,228.59 L2197.69,105.34 L2248.11,105.34 L2248.11,228.59 Z M2309.73,1945.7 L2259.31,1945.7 L2259.31,1822.44 L2309.73,1822.44 L2309.73,1945.7 Z M2309.73,228.56 L2259.31,228.56 L2259.31,105.3 L2309.73,105.3 L2309.73,228.56 Z M2370.73,1945.7 L2320.31,1945.7 L2320.31,1822.44 L2370.73,1822.44 L2370.73,1945.7 Z M2370.73,228.56 L2320.31,228.56 L2320.31,105.3 L2370.73,105.3 L2370.73,228.56 Z M2431.73,1945.7 L2381.31,1945.7 L2381.31,1822.44 L2431.73,1822.44 L2431.73,1945.7 Z M2431.73,228.56 L2381.31,228.56 L2381.31,105.3 L2431.73,105.3 L2431.73,228.56 Z M2494.64,1945.66 L2444.22,1945.66 L2444.22,1822.41 L2494.64,1822.41 L2494.64,1945.66 Z M2494.64,228.59 L2444.22,228.59 L2444.22,105.34 L2494.64,105.34 L2494.64,228.59 Z M2555.64,1945.7 L2505.22,1945.7 L2505.22,1822.44 L2555.64,1822.44 L2555.64,1945.7 Z M2555.64,228.56 L2505.22,228.56 L2505.22,105.3 L2555.64,105.3 L2555.64,228.56 Z M2616.64,1945.7 L2566.22,1945.7 L2566.22,1822.44 L2616.64,1822.44 L2616.64,1945.7 Z M2616.64,228.56 L2566.22,228.56 L2566.22,105.3 L2616.64,105.3 L2616.64,228.56 Z M2679.54,1945.66 L2629.12,1945.66 L2629.12,1822.41 L2679.54,1822.41 L2679.54,1945.66 Z M2679.54,228.59 L2629.12,228.59 L2629.12,105.34 L2679.54,105.34 L2679.54,228.59 Z M2740.54,1945.7 L2690.12,1945.7 L2690.12,1822.44 L2740.54,1822.44 L2740.54,1945.7 Z M2740.54,228.56 L2690.12,228.56 L2690.12,105.3 L2740.54,105.3 L2740.54,228.56 Z M2803.45,1945.66 L2753,1945.66 L2753,1822.41 L2803.42,1822.41 L2803.45,1945.66 Z M2803.45,228.59 L2753,228.59 L2753,105.34 L2803.42,105.34 L2803.45,228.59 Z M2864.45,1945.7 L2814,1945.7 L2814,1822.44 L2864.42,1822.44 L2864.45,1945.7 Z M2864.45,228.56 L2814,228.56 L2814,105.3 L2864.42,105.3 L2864.45,228.56 Z M2927.36,1945.66 L2876.94,1945.66 L2876.94,1822.41 L2927.36,1822.41 L2927.36,1945.66 Z M2927.36,228.59 L2876.94,228.59 L2876.94,105.34 L2927.36,105.34 L2927.36,228.59 Z M2938.56,1945.59 L2938.56,1822.22 C2946.55359,1821.73255 2954.44483,1820.16844 2962.02,1817.57 L3009.7,1932.69 C2986.76498,1940.51558 2962.78345,1944.84736 2938.56,1945.54 L2938.56,1945.59 Z M3020.22,1928.85 L2972.37,1813.34 C2979.55865,1809.81171 2986.24157,1805.33513 2992.24,1800.03 L3083.41,1891.2 C3064.51174,1907.0584 3043.17286,1919.75569 3020.22,1928.8 L3020.22,1928.85 Z M3091.8,1883.75 L3000.16,1792.11 C3005.46839,1786.11409 3009.94528,1779.43071 3013.47,1772.24 L3136.88,1823.36 C3125.62997,1846.03645 3110.35551,1866.48147 3091.8,1883.7 L3091.8,1883.75 Z M3141.55,1813.16 L3017.75,1761.89 C3020.34844,1754.31483 3021.91255,1746.42359 3022.4,1738.43 L3157,1738.43 C3156.84754,1764.10097 3151.59586,1789.4858 3141.55,1813.11 L3141.55,1813.16 Z M3022.55,1666.01 L3022.55,1615.59 L3156.93,1615.59 L3156.93,1666 L3022.55,1666.01 Z M3156.93,1676.59 L3156.93,1727 L3022.56,1727 L3022.56,1676.58 L3156.93,1676.59 Z M3022.56,1605 L3022.56,1554.58 L3156.94,1554.58 L3156.94,1605 L3022.56,1605 Z M3022.56,1543 L3022.56,1492.58 L3156.94,1492.58 L3156.94,1543 L3022.56,1543 Z M3022.56,1481.38 L3022.56,1430.96 L3156.94,1430.96 L3156.94,1481.38 L3022.56,1481.38 Z M3022.56,1419.75 L3022.56,1369.33 L3156.94,1369.33 L3156.94,1419.75 L3022.56,1419.75 Z M3022.56,1358 L3022.56,1307.58 L3156.94,1307.58 L3156.94,1358 L3022.56,1358 Z M3022.56,1297 L3022.56,1246.58 L3156.94,1246.58 L3156.94,1297 L3022.56,1297 Z M3022.56,1236 L3022.56,1185.58 L3156.94,1185.58 L3156.94,1236 L3022.56,1236 Z M3022.56,1174 L3022.56,1123.58 L3156.94,1123.58 L3156.94,1174 L3022.56,1174 Z M3022.56,1112.38 L3022.56,1061.96 L3156.94,1061.96 L3156.94,1112.38 L3022.56,1112.38 Z M3022.56,1050.75 L3022.56,1000.29 L3156.94,1000.29 L3156.94,1050.71 L3022.56,1050.75 Z M3022.56,989 L3022.56,938.54 L3156.94,938.54 L3156.94,989 L3022.56,989 Z M3022.56,928 L3022.56,877.54 L3156.94,877.54 L3156.94,928 L3022.56,928 Z M3022.56,867 L3022.56,816.54 L3156.94,816.54 L3156.94,867 L3022.56,867 Z M3022.56,805 L3022.56,754.54 L3156.94,754.54 L3156.94,805 L3022.56,805 Z M3022.56,743.38 L3022.56,692.92 L3156.94,692.92 L3156.94,743.34 L3022.56,743.38 Z M3022.56,681.75 L3022.56,631.29 L3156.94,631.29 L3156.94,681.71 L3022.56,681.75 Z M3022.56,620 L3022.56,569.54 L3156.94,569.54 L3156.94,620 L3022.56,620 Z M3022.56,559 L3022.56,508.54 L3156.94,508.54 L3156.94,559 L3022.56,559 Z M3022.56,498 L3022.56,447.54 L3156.94,447.54 L3156.94,498 L3022.56,498 Z M3156.9,386 L3156.9,436.42 L3022.53,436.42 L3022.53,385.92 L3156.9,386 Z M3022.56,374.42 L3022.56,323.92 L3156.94,323.92 L3156.94,374.34 L3022.56,374.42 Z M3022.4,312.7 C3021.91255,304.706407 3020.34844,296.815175 3017.75,289.24 L3141.55,237.97 C3151.59197,261.584894 3156.84357,286.959138 3157,312.62 L3022.4,312.7 Z" id="Shape" fill="#000000"></path>
            <path d="M2933.08,228.31 L346.92,228.31 C297.568595,228.37063 257.57959,268.368583 257.53,317.72 L257.53,1732.28 C257.57959,1781.63142 297.568595,1821.62937 346.92,1821.69 L2933.08,1821.69 C2982.43141,1821.62937 3022.42041,1781.63142 3022.47,1732.28 L3022.47,317.72 C3022.42041,268.368583 2982.43141,228.37063 2933.08,228.31 Z" id="Path" fill="#000000"></path>
            <path d="M0.5,0.5 L0.5,2048.5 L3280.5,2048.5 L3280.5,0.5 L0.5,0.5 Z M3154.71,1736.76 C3154.71,1786.1 3135.42,1833.88 3100.39,1871.27 C3065.76,1908.27 3018.07,1932.77 2966.11,1940.27 L2966.01,1940.27 L314,1940.27 L313.89,1940.27 C261.89,1932.73 214.24,1908.21 179.61,1871.27 C144.61,1833.88 125.29,1786.1 125.29,1736.76 L125.29,313.24 C125.29,263.9 144.58,216.13 179.61,178.73 C214.24,141.73 261.93,117.23 313.89,109.73 L314,109.73 L2966,109.73 L2966.1,109.73 C3018.1,117.27 3065.75,141.79 3100.38,178.73 C3135.38,216.13 3154.7,263.9 3154.7,313.24 L3154.71,1736.76 Z" id="Shape" fill="#000000"></path>
            <path d="M2933.08,226.81 L346.92,226.81 C296.728452,226.8541 256.049621,267.528458 256,317.72 L256,1732.28 C256.049592,1782.45984 296.710168,1823.12937 346.89,1823.19 L2933.08,1823.19 C2983.25983,1823.12937 3023.92041,1782.45984 3023.97,1732.28 L3023.97,317.72 C3023.92041,267.540156 2983.25983,226.870632 2933.08,226.81 Z M3021.41,1732.28 C3021.36042,1781.04762 2981.8476,1820.57386 2933.08,1820.64 L346.92,1820.64 C298.152399,1820.57386 258.639577,1781.04762 258.59,1732.28 L258.59,317.72 C258.639577,268.952379 298.152399,229.426138 346.92,229.36 L2933.08,229.36 C2981.8476,229.426138 3021.36042,268.952379 3021.41,317.72 L3021.41,1732.28 Z" id="Shape" fill="#81E4C2"></path>
            <path d="M3160.85,1865.35 L3160.85,1738.49 C3160.85,1737.91 3160.85,1737.34 3160.85,1736.76 L3160.85,313.24 C3160.85,312.66 3160.85,312.09 3160.85,311.51 L3160.85,184.65 C3163.84359,184.057828 3166.0007,181.431597 3166,178.38 C3165.95593,137.073084 3132.4869,103.595111 3091.18,103.54 C3088.13149,103.538352 3085.50634,105.690386 3084.91,108.68 L2992.49,108.68 C2972.46902,103.563497 2951.88441,100.983282 2931.22,101 L348.78,101 C328.115587,100.983282 307.53098,103.563497 287.51,108.68 L195.09,108.68 C194.493656,105.690386 191.86851,103.538352 188.82,103.54 C147.513098,103.595111 114.044071,137.073084 114,178.38 C113.999299,181.431597 116.15641,184.057828 119.15,184.65 L119.15,311.51 C119.15,312.09 119.15,312.66 119.15,313.24 L119.15,1736.76 C119.15,1737.34 119.15,1737.91 119.15,1738.49 L119.15,1865.35 C116.15641,1865.94217 113.999299,1868.5684 114,1871.62 C114.044071,1912.92692 147.513098,1946.40489 188.82,1946.46 C191.86851,1946.46165 194.493656,1944.30961 195.09,1941.32 L287.51,1941.32 C307.53098,1946.4365 328.115587,1949.01672 348.78,1949 L2931.22,1949 C2951.88441,1949.01672 2972.46902,1946.4365 2992.49,1941.32 L3084.91,1941.32 C3085.50634,1944.30961 3088.13149,1946.46165 3091.18,1946.46 C3132.4869,1946.40489 3165.95593,1912.92692 3166,1871.62 C3166.0007,1868.5684 3163.84359,1865.94217 3160.85,1865.35 Z M3084.91,111.17 C3085.50217,114.16359 3088.1284,116.320701 3091.18,116.32 C3125.41537,116.391612 3153.1415,144.144581 3153.18,178.38 C3153.18226,181.427114 3155.33252,184.0501 3158.32,184.65 L3158.32,281.86 C3145.32,201.41 3083.38,135.57 3001.45,111.17 L3084.91,111.17 Z M121.64,184.65 C124.627478,184.0501 126.777742,181.427114 126.78,178.38 C126.818497,144.144581 154.544634,116.391612 188.78,116.32 C191.831597,116.320701 194.457828,114.16359 195.05,111.17 L278.47,111.17 C196.54,135.57 134.55,201.41 121.6,281.86 L121.64,184.65 Z M195.09,1938.83 C194.497828,1935.83641 191.871597,1933.6793 188.82,1933.68 C154.584634,1933.60839 126.858497,1905.85542 126.82,1871.62 C126.817742,1868.57289 124.667478,1865.9499 121.68,1865.35 L121.68,1768.14 C134.68,1848.59 196.62,1914.43 278.55,1938.83 L195.09,1938.83 Z M2965.9,1938.83 L314.1,1938.83 C208.1,1923.44 126.79,1838.69 126.79,1736.76 L126.79,313.24 C126.79,211.31 208.11,126.56 314.1,111.17 L2965.9,111.17 C3071.9,126.56 3153.21,211.31 3153.21,313.24 L3153.21,1736.76 C3153.21,1838.69 3071.89,1923.44 2965.9,1938.83 Z M3158.36,1865.35 C3155.37252,1865.9499 3153.22226,1868.57289 3153.22,1871.62 C3153.1815,1905.85542 3125.45537,1933.60839 3091.22,1933.68 C3088.1684,1933.6793 3085.54217,1935.83641 3084.95,1938.83 L3001.53,1938.83 C3083.46,1914.43 3145.45,1848.59 3158.4,1768.14 L3158.36,1865.35 Z" id="Shape" fill="#81E4C2"></path>
            <path d="M1095,371.36 L1085.36,380.91 L1015.36,380.91 L1005.91,371.36 L1015.36,362 L1085.36,362 L1095,371.36 Z M1059.91,414.87 L1052.81,422.18 L1041,410.12 L1041,395.5 L1050.45,386 L1059.91,395.5 L1059.91,414.87 Z M1059.91,480.51 L1050.45,489.95 L1041,480.51 L1041,441.08 L1052.81,429.27 L1059.91,436.36 L1059.91,480.51 Z" id="Shape" fill="#FE414D"></path>
            <path d="M1131.87,414.9 L1131.87,362 L1150.78,381.11 L1150.78,410.22 L1138.96,422.22 L1131.87,414.9 Z M1150.78,441.1 L1150.78,470.4 L1131.87,489.32 L1131.87,436.37 L1138.96,429.27 L1150.78,441.1 Z M1192.42,416.18 L1201.87,425.64 L1192.42,435.09 L1152.05,435.09 L1142.6,425.64 L1152.05,416.18 L1192.42,416.18 Z M1193.51,410.18 L1193.51,381.09 L1212.42,362 L1212.42,414.91 L1205.33,422.18 L1193.51,410.18 Z M1212.42,436.36 L1212.42,489.27 L1193.51,470.36 L1193.51,441.09 L1205.33,429.27 L1212.42,436.36 Z" id="Shape" fill="#FE414D"></path>
            <path d="M1253.69,414.9 L1253.69,365.57 L1272.6,384.22 L1272.6,410.08 L1260.78,422.18 L1253.69,414.9 Z M1272.6,441.11 L1272.6,466.8 L1253.69,485.7 L1253.69,436.37 L1260.78,429.27 L1272.6,441.11 Z M1334.23,362 L1315.32,380.91 L1276.23,380.91 L1257.32,362 L1334.23,362 Z M1334.23,489.27 L1257.32,489.27 L1276.23,470.36 L1315.32,470.36 L1334.23,489.27 Z M1314.23,416.18 L1323.69,425.64 L1314.23,435.09 L1273.87,435.09 L1264.42,425.64 L1273.87,416.18 L1314.23,416.18 Z" id="Shape" fill="#FE414D"></path>
            <path d="M1375.5,362 L1394.41,381.09 L1394.41,410.18 L1382.6,422.18 L1375.5,414.91 L1375.5,362 Z M1433.69,489.27 L1443.14,479.82 L1433.69,470.36 L1392.05,470.36 L1382.6,479.82 L1392.05,489.27 L1433.69,489.27 Z M1395.69,416.18 L1386.23,425.64 L1395.69,435.09 L1436.05,435.09 L1445.5,425.64 L1436.05,416.18 L1395.69,416.18 Z M1456.05,362 L1437.14,381.11 L1437.14,410.22 L1448.96,422.22 L1456.05,414.94 L1456.05,362 Z M1456.05,436.41 L1448.96,429.32 L1437.14,441.14 L1437.14,466.78 L1446.6,476.23 L1456.05,466.78 L1456.05,436.41 Z" id="Shape" fill="#FE414D"></path>
            <path d="M1560.05,414.9 L1560.05,365.57 L1579,384.22 L1579,410.08 L1567.18,422.18 L1560.05,414.9 Z M1579,441.09 L1579,466.73 L1560.09,485.64 L1560.09,436.36 L1567.18,429.27 L1579,441.09 Z M1563.66,489.27 L1582.56,470.36 L1618.2,470.36 L1627.65,479.82 L1618.2,489.27 L1563.66,489.27 Z M1627.72,371.36 L1618.27,380.91 L1582.63,380.91 L1563.68,362 L1618.23,362 L1627.72,371.36 Z M1620.63,416.18 L1630.09,425.64 L1620.63,435.09 L1580.27,435.09 L1570.81,425.64 L1580.27,416.18 L1620.63,416.18 Z M1640.63,414.91 L1633.54,422.18 L1621.72,410.18 L1621.72,384.55 L1631.18,375.09 L1640.63,384.55 L1640.63,414.91 Z M1640.63,466.73 L1631.18,476.18 L1621.72,466.73 L1621.72,441.09 L1633.54,429.27 L1640.63,436.36 L1640.63,466.73 Z" id="Shape" fill="#FE414D"></path>
            <path d="M1681.86,362 L1700.77,381.09 L1700.77,410.18 L1688.95,422.18 L1681.86,414.91 L1681.86,362 Z M1681.86,466.73 L1691.32,476.18 L1700.77,466.73 L1700.77,441.09 L1689,429.27 L1681.91,436.36 L1681.86,466.73 Z M1704.41,489.27 L1694.95,479.82 L1704.41,470.36 L1740,470.36 L1749.46,479.82 L1740,489.27 L1704.41,489.27 Z M1762.41,414.9 L1755.32,422.18 L1743.5,410.18 L1743.5,381.06 L1762.41,362 L1762.41,414.9 Z M1762.41,466.73 L1752.95,476.18 L1743.5,466.73 L1743.5,441.09 L1755.32,429.27 L1762.41,436.36 L1762.41,466.73 Z" id="Shape" fill="#FE414D"></path>
            <path d="M1812.22,410.17 L1812.22,381.06 L1831.13,362 L1831.13,414.9 L1824.04,422.18 L1812.22,410.17 Z M1831.13,436.37 L1831.13,489.32 L1812.22,470.4 L1812.22,441.1 L1824,429.27 L1831.13,436.37 Z" id="Shape" fill="#FE414D"></path>
            <path d="M1880.77,414.9 L1880.77,362 L1899.68,381.11 L1899.68,410.22 L1887.86,422.22 L1880.77,414.9 Z M1899.68,441.11 L1899.68,466.8 L1880.77,485.7 L1880.77,436.37 L1887.86,429.27 L1899.68,441.11 Z M1961.31,489.27 L1884.4,489.27 L1903.31,470.36 L1942.4,470.36 L1961.31,489.27 Z" id="Shape" fill="#FE414D"></path>
            <path d="M2042.49,371.36 L2032.86,380.91 L1962.86,380.91 L1953.4,371.36 L1962.86,362 L2032.86,362 L2042.49,371.36 Z M2007.4,414.87 L2000.31,422.18 L1988.49,410.12 L1988.49,395.5 L1998,386 L2007.45,395.5 L2007.4,414.87 Z M2007.4,480.51 L1998,490 L1988.54,480.56 L1988.54,441.08 L2000.36,429.27 L2007.45,436.36 L2007.4,480.51 Z" id="Shape" fill="#FE414D"></path>
            <path d="M2120.67,410.17 L2120.67,381.06 L2139.58,362 L2139.58,414.9 L2132.49,422.18 L2120.67,410.17 Z M2139.58,436.37 L2139.58,489.32 L2120.67,470.4 L2120.67,441.1 L2132.49,429.27 L2139.58,436.37 Z" id="Shape" fill="#FE414D"></path>
            <path d="M2274.12,371.36 L2264.49,380.91 L2194.49,380.91 L2185.03,371.36 L2194.49,362 L2264.49,362 L2274.12,371.36 Z M2239,414.87 L2231.91,422.18 L2220.09,410.12 L2220.09,395.5 L2229.55,386 L2239,395.5 L2239,414.87 Z M2239,480.51 L2229.55,489.95 L2220.09,480.51 L2220.09,441.08 L2231.91,429.27 L2239,436.36 L2239,480.51 Z" id="Shape" fill="#FE414D"></path>
        </g>
    </g>
</svg>