<?xml version="1.0" encoding="utf-8"?>
<!-- Generator: Adobe Illustrator 24.0.1, SVG Export Plug-In . SVG Version: 6.00 Build 0)  -->
<svg version="1.2" baseProfile="tiny" id="Calque_1"
	 xmlns="http://www.w3.org/2000/svg" xmlns:xlink="http://www.w3.org/1999/xlink" x="0px" y="0px" viewBox="0 0 400 225.5"
	 xml:space="preserve">
<path fill="#FFFFFF" d="M298.2,65.9L329,9.4c4.5-7.9-6.8-12.9-10.8-6.1l-30.9,57c-53.4-23.6-117.8-24.8-173.8,0L82.3,3.1
	c-4-6.7-15.3-1.8-10.8,6.1l30.6,56.6C41.2,97,0,156.8,0,225.5h400C400,156.7,358.8,97,298.2,65.9z M108.9,153.2
	c-9,0-16.4-7.7-16.4-16.9c0-9.2,7.2-16.9,16.4-16.9c9.5,0,16.9,7.7,16.9,16.9C125.8,145.5,118.5,153.2,108.9,153.2z M291.6,153.2
	c-9.5,0-16.9-7.7-16.9-16.9c0-9.2,7.4-16.9,16.9-16.9c9,0,16.4,7.7,16.4,16.9C308,145.5,300.6,153.2,291.6,153.2z"/>
</svg>
