<?xml version="1.0" encoding="utf-8"?>
<!-- Generator: Adobe Illustrator 24.0.0, SVG Export Plug-In . SVG Version: 6.00 Build 0)  -->
<svg version="1.1" id="Calque_1" xmlns="http://www.w3.org/2000/svg" xmlns:xlink="http://www.w3.org/1999/xlink" x="0px" y="0px"
	 viewBox="0 0 1010 1010" enable-background="new 0 0 1010 1010" xml:space="preserve">
<path fill="#81E4C2" d="M1008,872V139c0-13.1-1.7-25.8-5-37.8V50.4c2.3-0.5,4-2.5,4-4.9c0-24.8-20.2-45-45-45c-2.4,0-4.4,1.7-4.9,4
	h-63.2c-3.5-0.3-7.1-0.5-10.7-0.5H126.8c-3.6,0-7.2,0.2-10.7,0.5H52.9c-0.5-2.3-2.5-4-4.9-4c-24.8,0-45,20.2-45,45
	c0,2.4,1.7,4.4,4,4.9v50.8c-3.2,12-5,24.7-5,37.8v733c0,13.1,1.7,25.8,5,37.8v50.8c-2.3,0.5-4,2.5-4,4.9c0,24.8,20.2,45,45,45
	c2.4,0,4.4-1.7,4.9-4h63.2c3.5,0.3,7.1,0.5,10.7,0.5h756.4c3.6,0,7.2-0.2,10.7-0.5h63.2c0.5,2.3,2.5,4,4.9,4c24.8,0,45-20.2,45-45
	c0-2.4-1.7-4.4-4-4.9v-50.8C1006.3,897.8,1008,885.1,1008,872z M126.8,1001C66.5,1001,16.5,951.9,9,888.5V122.4
	C16.5,59.1,66.5,10,126.8,10h756.4c60.3,0,110.3,49.1,117.8,112.4v766.1c-7.5,63.3-57.5,112.4-117.8,112.4L126.8,1001L126.8,1001z
	 M957.1,6.5c0.5,2.3,2.5,4,4.9,4c19.3,0,35,15.7,35,35c0,2.4,1.7,4.4,4,4.9v44.1c-14.5-44.7-50.1-78.8-93.9-88H957.1z M9,50.4
	c2.3-0.5,4-2.5,4-4.9c0-19.3,15.7-35,35-35c2.4,0,4.4-1.7,4.9-4h50C59.1,15.7,23.5,49.7,9,94.5V50.4z M52.9,1004.5
	c-0.5-2.3-2.5-4-4.9-4c-19.3,0-35-15.7-35-35c0-2.4-1.7-4.4-4-4.9v-44.1c14.5,44.7,50.1,78.8,93.9,88H52.9z M1001,960.6
	c-2.3,0.5-4,2.5-4,4.9c0,19.3-15.7,35-35,35c-2.4,0-4.4,1.7-4.9,4h-50c43.8-9.2,79.4-43.3,93.9-88V960.6z"/>
<path opacity="0.2" fill="#81E4C2" d="M126.8,1003.5C59.5,1003.5,5,944.4,5,871.5v-733c0-72.9,54.5-132,121.8-132h756.4
	c67.3,0,121.8,59.1,121.8,132v733c0,72.9-54.5,132-121.8,132H126.8z"/>
</svg>
