<?xml version="1.0" encoding="utf-8"?>
<!-- Generator: Adobe Illustrator 24.0.0, SVG Export Plug-In . SVG Version: 6.00 Build 0)  -->
<svg version="1.2" baseProfile="tiny" id="Calque_1"
	 xmlns="http://www.w3.org/2000/svg" xmlns:xlink="http://www.w3.org/1999/xlink" x="0px" y="0px" viewBox="0 0 359 76"
	 xml:space="preserve">
<g>
	<path fill="#DC434E" d="M1.1,75.9c-0.6,0-0.9-0.3-0.9-0.9V0.9c0-0.6,0.3-0.9,0.9-0.9h6.2C7.7,0.1,8,0.3,8,0.9v74.1
		c0,0.6-0.2,0.9-0.7,0.9H1.1z"/>
	<path fill="#DC434E" d="M23.9,9.6c-0.5,0-0.7-0.3-0.7-1V0.9c0-0.6,0.2-0.9,0.7-0.9h6.4c0.4,0,0.6,0.3,0.6,0.9v7.6
		c0,0.7-0.2,1-0.6,1H23.9z M23.9,75.9c-0.5,0-0.7-0.3-0.7-0.9V22.2c0-0.6,0.2-0.9,0.7-0.9h6.4c0.4,0,0.6,0.3,0.6,0.9v52.8
		c0,0.6-0.2,0.9-0.6,0.9H23.9z"/>
	<path fill="#DC434E" d="M97,56.2v0.4c0,12.9-5.7,19.3-17,19.3H62.7c-10.9,0-16.3-6.7-16.3-20.2V42.7c0-3.3,0.4-6.2,1.1-8.8
		c0.7-2.5,1.9-4.7,3.5-6.6c3.4-3.7,7.5-5.6,12.2-5.6H80c5.2,0,9.3,1.5,12.2,4.5c3.2,3.4,4.8,8.3,4.8,14.7c0,0.7-0.3,1-0.8,1h-5.6
		c-0.5,0-0.8-0.3-0.8-1v-0.1c0-7.3-3.3-10.9-9.8-10.9H63.2c-3.3,0-5.6,1.1-7.1,3.2c-1.5,2.1-2.2,5.3-2.2,9.5v13.1
		c0,3.6,0.8,6.5,2.5,8.7c1.6,2.2,3.8,3.3,6.4,3.3H80c6.5,0,9.8-3.6,9.8-10.9v-0.2c0-0.6,0.3-0.9,0.8-0.9h5.6h0.1
		c0.1,0,0.1,0,0.2,0.1L97,56.2z"/>
	<path fill="#DC434E" d="M158.5,70.6c-3.1,3.6-7.4,5.4-12.8,5.4h-15.4c-11.8,0-17.7-7.1-17.7-21.3V43.2c0-7.1,1.5-12.5,4.6-16.2
		c1.7-1.7,3.6-3,5.7-3.9c2.1-0.9,4.6-1.4,7.4-1.4h15.4c5.4,0,9.7,1.8,12.8,5.3c1.7,1.9,2.9,4.1,3.6,6.8c0.7,2.7,1.1,5.8,1.1,9.3
		v11.5C163.2,61.7,161.6,67,158.5,70.6z M156,43.1c0-8.7-3.6-13.1-10.8-13.1h-14.3c-7.2,0-10.8,4.4-10.8,13.2v11.5
		c0,8.8,3.6,13.2,10.8,13.2h14.3c7.2,0,10.8-4.4,10.8-13.2V43.1z"/>
	<path fill="#DC434E" d="M222.8,44.2c-0.5,0-0.8-0.3-0.8-1c0-8.8-3.6-13.2-10.7-13.2h-13.8c-3.7,0-6.5,1.1-8.2,3.3
		c-1.7,2.2-2.6,5.5-2.6,9.9v31.9c0,0.6-0.3,0.9-1,0.9h-5.6c-0.5,0-0.7-0.3-0.7-0.9v-32c0-3.1,0.2-5.7,0.7-7.6c0.5-2,0.9-3.3,1.2-4.1
		c0-0.1,0-0.1,0.1-0.2c0-0.1,0-0.2,0.1-0.3c1.3-2.9,3.1-5.2,5.3-6.8c2.2-1.6,4.4-2.4,6.5-2.4h18.5c5.3,0,9.6,1.8,12.7,5.3
		c3.2,3.7,4.8,9.1,4.8,16.1c0,0.7-0.3,1-0.9,1H222.8z"/>
	<path fill="#DC434E" d="M285.5,75.9c-0.5,0-0.8-0.3-0.8-0.9V43.6c0-4.2-1-7.5-2.9-9.9c-1.9-2.4-4.4-3.5-7.4-3.5h-14.7
		c-2.9,0-5.4,1.2-7.4,3.6c-2,2.4-3,5.7-3,9.8v31.5c0,0.6-0.3,0.9-1,0.9h-5.6c-0.5,0-0.8-0.3-0.8-0.9V44.6c0-7.2,1.6-12.8,4.7-16.8
		c3.1-4,7.5-6,13.1-6h14.7c5.5,0,9.9,2,13,5.9c3.1,3.9,4.7,9.5,4.7,17v30.4c0,0.6-0.3,0.9-0.9,0.9H285.5z"/>
	<path fill="#DC434E" d="M357.8,66.4c-0.7,2-1.8,3.8-3.3,5.3c-2.6,2.8-6,4.2-10.1,4.2h-18.8c-11.5,0-17.3-6.8-17.3-20.4V42.9
		c0-6.3,1.6-11.5,4.8-15.5c3.5-3.8,7.6-5.7,12.3-5.7h16.1c2.5,0,4.7,0.4,6.7,1.2c2,0.8,3.8,1.9,5.3,3.4c1.8,1.7,3.2,3.9,4,6.4
		c0.9,2.5,1.4,5.2,1.4,8.1v7.6c0,0.7-0.3,1-0.9,1h-42.3v5.1c0,8.8,3.2,13.2,9.7,13.2h18.2c2.9,0,5.1-0.8,6.5-2.5
		c1.4-1.7,2-4.5,2-8.5v-4.3c0.9-0.1,1.6-0.2,2.1-0.2c0.5,0,1,0,1.4,0h1.6c1.1,0,1.7,0.3,1.7,1v6.3C358.8,62.1,358.5,64.4,357.8,66.4
		z M318.3,33.2c-1.6,2.1-2.5,4.8-2.6,8h36c-0.2-3.4-1.2-6.1-3-8.2c-1.8-2-4-3-6.5-3h-17.7C322,29.9,319.9,31,318.3,33.2z"/>
</g>
</svg>
