<?xml version="1.0" encoding="utf-8"?>
<!-- Generator: Adobe Illustrator 23.1.1, SVG Export Plug-In . SVG Version: 6.00 Build 0)  -->
<svg version="1.2" baseProfile="tiny" id="Calque_1"
	 xmlns="http://www.w3.org/2000/svg" xmlns:xlink="http://www.w3.org/1999/xlink" x="0px" y="0px" width="510px" height="510px"
	 viewBox="0 0 510 510" xml:space="preserve">
<g>
	<g>
		<g>
			<path fill="#333333" d="M215,246.6h40.4c4.6,0,8.4,3.8,8.4,8.4v0c0,4.6-3.8,8.4-8.4,8.4H215V246.6z"/>
			<g>
				<path fill="#1A1A1A" d="M207,335h-4.8v-4.8h-6.4v4.8h-9.6v-4.8h-6.4v4.8h-9.6v-4.8h-6.4v4.8H159c-4.4,0-8-3.6-8-8v-8v-16v-16
					v-16v-16v-16v-16v-16v-16v-8c0-4.4,3.6-8,8-8h4.8v4.8h6.4V175h9.6v4.8h6.4V175h9.6v4.8h6.4V175h4.8c4.4,0,8,3.6,8,8v8v16v16v16
					v16v16v16v16v16v8C215,331.4,211.4,335,207,335z"/>
			</g>
			<path fill="#FF0000" d="M143,247v16l-52.9-6.4c-1.8-0.3-1.8-2.9,0-3.2L143,247z"/>
			<circle cx="255" cy="255" r="6"/>
			<g>
				
					<path fill="none" stroke="#333333" stroke-width="3" stroke-linecap="round" stroke-linejoin="round" stroke-miterlimit="10" d="
					M207,335h-4.8v-4.8h-6.4v4.8h-9.6v-4.8h-6.4v4.8h-9.6v-4.8h-6.4v4.8H159c-4.4,0-8-3.6-8-8v-8v-16v-16v-16v-16v-16v-16v-16v-16
					v-8c0-4.4,3.6-8,8-8h4.8v4.8h6.4V175h9.6v4.8h6.4V175h9.6v4.8h6.4V175h4.8c4.4,0,8,3.6,8,8v8v16v16v16v16v16v16v16v16v8
					C215,331.4,211.4,335,207,335z"/>
			</g>
			<circle id="center" fill="none" cx="255" cy="255" r="4"/>
		</g>
	</g>
</g>
</svg>
